{"title":"Django Unchained 2012 HC BRRiP XviD AC3 - BHRG","uid":8306180,"size":3820321157,"categoryP":"video","categoryS":"movies","magnet":"?xt=urn:btih:02f402033d1b8b2414cb8672de224a77f1d6fdfa&amp;dn=Django+Unchained+2012+HC+BRRiP+XviD+AC3+-+BHRG&amp;tr=udp%3A%2F%2Ftracker.openbittorrent.com%3A80&amp;tr=udp%3A%2F%2Fopen.demonii.com%3A1337&amp;tr=udp%3A%2F%2Ftracker.coppersurfer.tk%3A6969&amp;tr=udp%3A%2F%2Fexodus.desync.com%3A6969","seeders":2,"leechers":0,"uploader":"Gh0stNet","files":3,"time":1364382877,"description":"Format : AVI\nFormat/Info : Audio Video Interleave\nFormat profile : OpenDML\nFile size : 3.53 GiB\nDuration : 2h 45mn\nOverall bit rate : 3 058 Kbps\nWriting library : VirtualDub build 32706/release\n\nVideo\nID : 0\nFormat : MPEG-4 Visual\nFormat profile : Advanced Simple@L5\nFormat settings, BVOP : 2\nFormat settings, QPel : No\nFormat settings, GMC : No warppoints\nFormat settings, Matrix : Default (H.263)\nCodec ID : XVID\nCodec ID/Hint : XviD\nDuration : 2h 45mn\nBit rate : 2 601 Kbps\nWidth : 720 pixels\nHeight : 304 pixels\nDisplay aspect ratio : 2.35:1\nFrame rate : 23.976 fps\nColor space : YUV\nChroma subsampling : 4:2:0\nBit depth : 8 bits\nScan type : Progressive\nCompression mode : Lossy\nBits/(Pixel*Frame) : 0.496\nStream size : 3.00 GiB (85%)\nWriting library : XviD 1.2.1 (UTC 2008-12-04)\n\nAudio\nID : 1\nFormat : AC-3\nFormat/Info : Audio Coding 3\nMode extension : CM (complete main)\nCodec ID : 2000\nDuration : 2h 45mn\nBit rate mode : Constant\nBit rate : 448 Kbps\nChannel(s) : 6 channels\nChannel positions : Front: L C R, Side: L R, LFE\nSampling rate : 48.0 KHz\nBit depth : 16 bits\nCompression mode : Lossy\nStream size : 530 MiB (15%)\nAlignment : Split accross interleaves\nInterleave, duration : 42 ms (1.00 video frame)\nInterleave, preload duration : 500 ms","torrent":{"xt":"urn:btih:02f402033d1b8b2414cb8672de224a77f1d6fdfa","amp;dn":"Django+Unchained+2012+HC+BRRiP+XviD+AC3+-+BHRG","amp;tr":["udp%3A%2F%2Ftracker.openbittorrent.com%3A80","udp%3A%2F%2Fopen.demonii.com%3A1337","udp%3A%2F%2Ftracker.coppersurfer.tk%3A6969","udp%3A%2F%2Fexodus.desync.com%3A6969"],"infoHash":"02f402033d1b8b2414cb8672de224a77f1d6fdfa","infoHashBuffer":{"type":"Buffer","data":[2,244,2,3,61,27,139,36,20,203,134,114,222,34,74,119,241,214,253,250]},"announce":[],"urlList":[]}}